<?xml version="1.0" encoding="UTF-8" standalone="no"?>
<!-- Created with Inkscape (http://www.inkscape.org/) -->

<svg
   xmlns:dc="http://purl.org/dc/elements/1.1/"
   xmlns:cc="http://creativecommons.org/ns#"
   xmlns:rdf="http://www.w3.org/1999/02/22-rdf-syntax-ns#"
   xmlns:svg="http://www.w3.org/2000/svg"
   xmlns="http://www.w3.org/2000/svg"
   xmlns:xlink="http://www.w3.org/1999/xlink"
   xmlns:sodipodi="http://sodipodi.sourceforge.net/DTD/sodipodi-0.dtd"
   xmlns:inkscape="http://www.inkscape.org/namespaces/inkscape"
   width="297mm"
   height="210mm"
   viewBox="0 0 1052.3622 744.09448"
   id="svg2"
   version="1.1"
   inkscape:version="0.91 r13725"
   inkscape:export-filename="/home/linked/Dropbox/LWBCorpAssets/annex/annex-jumbotron-trans-black.png"
   inkscape:export-xdpi="90"
   inkscape:export-ydpi="90"
   sodipodi:docname="annex3.svg">
  <defs
     id="defs4">
    <linearGradient
       inkscape:collect="always"
       id="linearGradient4150">
      <stop
         style="stop-color:#ff0000;stop-opacity:1"
         offset="0"
         id="stop4152" />
      <stop
         style="stop-color:#ffff00;stop-opacity:1"
         offset="1"
         id="stop4154" />
    </linearGradient>
    <linearGradient
       inkscape:collect="always"
       xlink:href="#linearGradient4150"
       id="linearGradient4156"
       x1="236.33264"
       y1="602.45886"
       x2="766.64221"
       y2="602.45886"
       gradientUnits="userSpaceOnUse"
       gradientTransform="matrix(0.09273653,0,0,-0.09273653,524.03044,645.03554)" />
  </defs>
  <sodipodi:namedview
     id="base"
     pagecolor="#000000"
     bordercolor="#666666"
     borderopacity="1.0"
     inkscape:pageopacity="0"
     inkscape:pageshadow="2"
     inkscape:zoom="0.70000001"
     inkscape:cx="872.03275"
     inkscape:cy="223.87343"
     inkscape:document-units="px"
     inkscape:current-layer="layer1"
     showgrid="false"
     showguides="false"
     inkscape:guide-bbox="true"
     inkscape:window-width="1855"
     inkscape:window-height="1056"
     inkscape:window-x="3425"
     inkscape:window-y="297"
     inkscape:window-maximized="1">
    <sodipodi:guide
       position="-922.85716,500"
       orientation="0,1"
       id="guide3336" />
    <sodipodi:guide
       position="-634.28572,200"
       orientation="0,1"
       id="guide3338" />
    <sodipodi:guide
       position="-802.85716,700"
       orientation="0,1"
       id="guide3340" />
    <sodipodi:guide
       position="251.42858,1085.7143"
       orientation="1,0"
       id="guide3342" />
    <sodipodi:guide
       position="751.42858,700"
       orientation="1,0"
       id="guide3344" />
    <sodipodi:guide
       position="500.00001,1114.2857"
       orientation="1,0"
       id="guide3346" />
    <inkscape:grid
       type="xygrid"
       id="grid4158" />
    <sodipodi:guide
       position="500.00001,476.42857"
       orientation="1,0"
       id="guide4336" />
    <sodipodi:guide
       position="384.28572,304.28571"
       orientation="1,0"
       id="guide4338" />
    <sodipodi:guide
       position="632.85715,330"
       orientation="1,0"
       id="guide4340" />
    <sodipodi:guide
       position="558.57144,227.14286"
       orientation="0,1"
       id="guide4342" />
  </sodipodi:namedview>
  <metadata
     id="metadata7">
    <rdf:RDF>
      <cc:Work
         rdf:about="">
        <dc:format>image/svg+xml</dc:format>
        <dc:type
           rdf:resource="http://purl.org/dc/dcmitype/StillImage" />
        <dc:title></dc:title>
      </cc:Work>
    </rdf:RDF>
  </metadata>
  <g
     inkscape:label="Layer 1"
     inkscape:groupmode="layer"
     id="layer1"
     transform="translate(0,-308.26772)">
    <g
       id="g4159"
       transform="matrix(11.382088,0,0,11.382088,-5995.2686,-6104.6731)">
      <path
         inkscape:export-ydpi="90"
         inkscape:export-xdpi="90"
         sodipodi:nodetypes="ccccc"
         inkscape:connector-curvature="0"
         id="path4148"
         d="m 558.58843,566.27147 12.02681,46.37594 13.33301,-46.44812 -36.41383,27.6121 46.72207,0"
         style="fill:none;fill-rule:evenodd;stroke:url(#linearGradient4156);stroke-width:2.78207827;stroke-linecap:round;stroke-linejoin:round;stroke-miterlimit:4;stroke-dasharray:none;stroke-opacity:1" />
      <path
         inkscape:export-ydpi="90"
         inkscape:export-xdpi="90"
         inkscape:connector-curvature="0"
         id="path4233"
         d="m 594.36919,601.1485 0,-14.96291 7.60972,7.60971 z"
         style="fill:#ffff00;fill-opacity:1;fill-rule:evenodd;stroke:none;stroke-width:1px;stroke-linecap:butt;stroke-linejoin:miter;stroke-opacity:1" />
    </g>
    <g
       id="g4405"
       transform="matrix(1.414916,0,0,1.414916,-173.41343,262.06872)"
       style="fill:#ffffff;fill-opacity:1;stroke:none;stroke-opacity:1"
       inkscape:export-xdpi="90"
       inkscape:export-ydpi="90">
      <path
         d="m 441.11265,544.58148 0,-87.67987 c 0,-2.94228 0,-6.47302 -5.73745,-6.47302 -5.73745,0 -5.73745,3.53074 -5.73745,6.47302 l 0,84.7376 -51.93119,-85.7674 c -3.23651,-5.44322 -7.35571,-5.44322 -10.29799,-5.44322 l -5.44318,0 c -5.00188,0 -6.47302,1.17692 -6.47302,6.47302 l 0,87.67987 c 0,2.94228 0,6.47302 5.73745,6.47302 5.7374,0 5.7374,-3.53074 5.7374,-6.47302 l 0,-84.7376 51.93124,85.7674 c 3.23652,5.44322 7.35566,5.44322 10.29795,5.44322 l 5.44322,0 c 5.00188,0 6.47302,-1.17691 6.47302,-6.47302 z"
         id="path4271"
         inkscape:connector-curvature="0"
         style="font-style:normal;font-variant:normal;font-weight:normal;font-stretch:normal;font-size:medium;line-height:125%;font-family:'Latin Modern Sans Quotation';-inkscape-font-specification:'Latin Modern Sans Quotation, Normal';text-align:center;letter-spacing:0px;word-spacing:0px;writing-mode:lr-tb;text-anchor:middle;fill:#ffffff;fill-opacity:1;stroke:none;stroke-width:1px;stroke-linecap:butt;stroke-linejoin:miter;stroke-opacity:1" />
      <path
         d="m 550.64277,544.58148 0,-87.67987 c 0,-2.94228 0,-6.47302 -5.73745,-6.47302 -5.73745,0 -5.73745,3.53074 -5.73745,6.47302 l 0,84.7376 -51.93119,-85.7674 c -3.23652,-5.44322 -7.35571,-5.44322 -10.29799,-5.44322 l -5.44318,0 c -5.00188,0 -6.47302,1.17692 -6.47302,6.47302 l 0,87.67987 c 0,2.94228 0,6.47302 5.73745,6.47302 5.7374,0 5.7374,-3.53074 5.7374,-6.47302 l 0,-84.7376 51.93124,85.7674 c 3.23651,5.44322 7.35566,5.44322 10.29794,5.44322 l 5.44323,0 c 5.00188,0 6.47302,-1.17691 6.47302,-6.47302 z"
         id="path4273"
         inkscape:connector-curvature="0"
         style="font-style:normal;font-variant:normal;font-weight:normal;font-stretch:normal;font-size:medium;line-height:125%;font-family:'Latin Modern Sans Quotation';-inkscape-font-specification:'Latin Modern Sans Quotation, Normal';text-align:center;letter-spacing:0px;word-spacing:0px;writing-mode:lr-tb;text-anchor:middle;fill:#ffffff;fill-opacity:1;stroke:none;stroke-width:1px;stroke-linecap:butt;stroke-linejoin:miter;stroke-opacity:1" />
      <path
         d="m 653.24129,546.05263 c 0,-5.14899 -3.65779,-5.14899 -5.74797,-5.14899 l -62.05167,0 0,-36.92559 55.25864,0 c 1.82889,0 5.74796,0 5.74796,-4.85476 0,-4.85476 -3.91907,-4.85476 -5.74796,-4.85476 l -55.25864,0 0,-33.83619 59.83089,0 c 1.82889,0 5.74797,0 5.74797,-4.85476 0,-4.85476 -3.91908,-4.85476 -5.74797,-4.85476 l -66.36264,0 c -4.44156,0 -5.74791,1.17692 -5.74791,6.47301 l 0,87.38565 c 0,5.00188 1.04506,6.47302 5.74791,6.47302 l 68.58342,0 c 1.95954,0 5.74797,0 5.74797,-5.00187 z"
         id="path4275"
         inkscape:connector-curvature="0"
         style="font-style:normal;font-variant:normal;font-weight:normal;font-stretch:normal;font-size:medium;line-height:125%;font-family:'Latin Modern Sans Quotation';-inkscape-font-specification:'Latin Modern Sans Quotation, Normal';text-align:center;letter-spacing:0px;word-spacing:0px;writing-mode:lr-tb;text-anchor:middle;fill:#ffffff;fill-opacity:1;stroke:none;stroke-width:1px;stroke-linecap:butt;stroke-linejoin:miter;stroke-opacity:1" />
      <path
         d="m 761.02231,548.25933 c 0,-1.0298 -0.255,-1.32402 -1.78496,-3.2365 l -39.01482,-47.07645 33.02232,-42.07457 c 1.27501,-1.61825 1.40249,-1.76537 1.40249,-2.64805 0,-2.79517 -2.42249,-2.79517 -4.20745,-2.79517 l -2.29501,0 c -2.67749,0 -4.20749,0 -6.62993,3.0894 l -27.41235,35.60156 -27.79487,-35.74868 c -2.29496,-2.94228 -3.82497,-2.94228 -6.50245,-2.94228 l -4.20749,0 c -2.54997,0 -4.07997,0 -4.07997,3.53074 l 36.33728,43.98705 -37.48476,47.51779 c -1.27501,1.61825 -1.27501,2.79516 -1.27501,2.79516 0,2.79517 2.29496,2.79517 4.07997,2.79517 l 2.42249,0 c 2.42248,0 4.33496,0 6.5025,-2.94228 l 32.00231,-42.22169 32.25727,42.3688 c 2.16749,2.79517 4.2075,2.79517 6.37498,2.79517 l 4.20749,0 c 1.78501,0 4.07997,0 4.07997,-2.79517 z"
         id="path4277"
         inkscape:connector-curvature="0"
         style="font-style:normal;font-variant:normal;font-weight:normal;font-stretch:normal;font-size:medium;line-height:125%;font-family:'Latin Modern Sans Quotation';-inkscape-font-specification:'Latin Modern Sans Quotation, Normal';text-align:center;letter-spacing:0px;word-spacing:0px;writing-mode:lr-tb;text-anchor:middle;fill:#ffffff;fill-opacity:1;stroke:none;stroke-width:1px;stroke-linecap:butt;stroke-linejoin:miter;stroke-opacity:1" />
      <path
         id="path4269"
         transform="translate(0,308.26772)"
         d="m 287.05078,140.68945 c -3.18759,0 -6.65178,1.4e-4 -9.00781,5.44336 l -39.35938,90.62305 c -0.41575,0.88268 -0.83203,1.76513 -0.83203,2.79492 0,3.23651 3.18815,3.23633 4.29688,3.23633 1.94024,0 5.5424,-0.14663 7.89844,-5.58984 l 9.42382,-21.77344 0.0137,0 4.14648,-9.70899 -0.002,0 0.082,-0.1875 22.09179,-51.30273 21.95704,51.30273 0.0195,0 5.17578,11.61719 -0.0684,0 6.45508,14.75586 c 4.29632,10.00374 4.71108,10.88672 11.50195,10.88672 2.63322,0 5.54492,1.8e-4 5.54492,-3.23633 0,-0.73557 -0.55484,-2.20647 -0.83203,-2.79492 l -39.35937,-90.32813 c -2.07885,-4.56053 -3.60297,-5.73828 -9.14649,-5.73828 z"
         style="font-style:normal;font-variant:normal;font-weight:normal;font-stretch:normal;font-size:medium;line-height:125%;font-family:'Latin Modern Sans Quotation';-inkscape-font-specification:'Latin Modern Sans Quotation, Normal';text-align:center;letter-spacing:0px;word-spacing:0px;writing-mode:lr-tb;text-anchor:middle;fill:#ffffff;fill-opacity:1;stroke:none;stroke-width:1px;stroke-linecap:butt;stroke-linejoin:miter;stroke-opacity:1"
         inkscape:connector-curvature="0" />
    </g>
  </g>
</svg>
