<?xml version="1.0" encoding="UTF-8" standalone="no"?>
<!-- Created with Inkscape (http://www.inkscape.org/) -->

<svg
   xmlns:dc="http://purl.org/dc/elements/1.1/"
   xmlns:cc="http://creativecommons.org/ns#"
   xmlns:rdf="http://www.w3.org/1999/02/22-rdf-syntax-ns#"
   xmlns:svg="http://www.w3.org/2000/svg"
   xmlns="http://www.w3.org/2000/svg"
   xmlns:sodipodi="http://sodipodi.sourceforge.net/DTD/sodipodi-0.dtd"
   xmlns:inkscape="http://www.inkscape.org/namespaces/inkscape"
   version="1.1"
   id="svg2"
   xml:space="preserve"
   width="2560"
   height="592.1507"
   viewBox="0 0 2560 592.1507"
   sodipodi:docname="shipchain-logo-outline.svg"
   inkscape:version="0.92.4 (5da689c313, 2019-01-14)"><metadata
     id="metadata8"><rdf:RDF><cc:Work
         rdf:about=""><dc:format>image/svg+xml</dc:format><dc:type
           rdf:resource="http://purl.org/dc/dcmitype/StillImage" /><dc:title></dc:title></cc:Work></rdf:RDF></metadata><defs
     id="defs6"><clipPath
       clipPathUnits="userSpaceOnUse"
       id="clipPath18"><path
         d="M 0,444.113 H 1920 V 0 H 0 Z"
         id="path16"
         inkscape:connector-curvature="0" /></clipPath></defs><sodipodi:namedview
     pagecolor="#ffffff"
     bordercolor="#666666"
     borderopacity="1"
     objecttolerance="10"
     gridtolerance="10"
     guidetolerance="10"
     inkscape:pageopacity="0"
     inkscape:pageshadow="2"
     inkscape:window-width="1920"
     inkscape:window-height="1021"
     id="namedview4"
     showgrid="false"
     inkscape:pagecheckerboard="true"
     inkscape:zoom="0.14726563"
     inkscape:cx="1300.3714"
     inkscape:cy="296.07535"
     inkscape:window-x="0"
     inkscape:window-y="27"
     inkscape:window-maximized="1"
     inkscape:current-layer="g12" /><g
     id="g10"
     inkscape:groupmode="layer"
     inkscape:label="shipchain-logo-outline"
     transform="matrix(1.3333333,0,0,-1.3333333,0,592.15067)"><g
       id="g12"><g
         id="g14"
         clip-path="url(#clipPath18)"
         style="fill:#ffffff;fill-opacity:1"><g
           id="g20"
           transform="translate(1859.5469,59.085)"
           style="fill:#ffffff;fill-opacity:1"><path
             d="m 0,0 c 0.072,1.353 0.197,2.604 0.197,3.854 0.009,107.755 0.009,215.51 0.008,323.265 0,0.64 0.02,1.281 -0.02,1.92 -0.111,1.783 -0.317,1.996 -2.177,2.086 -1.117,0.055 -2.239,0.024 -3.36,0.024 -595.81,10e-4 -1191.622,10e-4 -1787.433,10e-4 -1.04,0 -2.081,0.029 -3.119,-0.018 -0.783,-0.036 -1.562,-0.173 -2.276,-0.256 -0.592,-2.445 -0.527,-328.81 0.069,-330.876 z m 27.093,350.412 v -369.12 c -0.212,-0.507 -0.494,-0.997 -0.627,-1.523 -0.859,-3.416 -3.004,-5.613 -6.378,-6.459 -1.527,-0.383 -3.157,-0.497 -4.74,-0.497 -609.663,-0.02 -1219.326,-0.02 -1828.989,-0.019 -0.72,0 -1.441,-0.023 -2.159,0.014 -5.992,0.3 -9.608,4.427 -9.479,9.632 0.017,0.72 -0.01,1.441 -0.01,2.161 -10e-4,120.716 -10e-4,241.433 0,362.149 0,0.641 0.034,1.282 0,1.92 -0.23,4.223 2.764,7.774 6.31,8.955 0.667,0.222 1.273,0.626 1.907,0.947 H 18.929 c 3.891,-1.549 6.856,-4.023 8.159,-8.16"
             style="fill:#ffffff;fill-opacity:1;fill-rule:nonzero;stroke:none"
             id="path22"
             inkscape:connector-curvature="0" /></g><g
           id="g24"
           transform="translate(949.8579,224.229)"
           style="fill:#ffffff;fill-opacity:1"><path
             d="m 0,0 c 0.759,9.426 -8.513,17.996 -17.789,18.103 -9.361,0.108 -18.429,-7.918 -18.497,-18.046 -0.069,-10.437 9.092,-18.34 18.199,-18.373 C -8.646,-18.349 0.789,-9.81 0,0 m 103.2,-13.792 c -1.228,0.11 -2.167,0.266 -3.107,0.266 -26,0.014 -51.999,-0.009 -77.998,0.047 -2.053,0.004 -3.051,-0.678 -3.909,-2.6 -4.708,-10.538 -12.557,-17.828 -23.509,-21.531 -17.657,-5.969 -37.102,0.695 -46.76,17.248 -7.999,13.707 -7.811,27.77 0.543,41.379 6.101,9.94 15.151,15.888 26.61,17.946 18.672,3.354 36.893,-6.949 43.783,-24.59 1.375,-3.522 1.375,-3.523 5.04,-3.523 h 75.838 3.292 c 0.068,1.362 0.17,2.45 0.17,3.538 0.009,33.439 0.01,66.878 -0.002,100.317 0,1.535 0.072,3.013 0.821,4.419 1.237,2.321 3.101,3.645 5.742,3.67 4.56,0.045 9.121,0.079 13.679,-0.01 3.72,-0.073 6.189,-2.672 6.322,-6.439 0.035,-0.958 0.016,-1.919 0.016,-2.879 0.001,-32.239 0.004,-64.479 -0.002,-96.718 -0.001,-4.22 -0.034,-3.925 3.944,-3.925 45.44,-0.001 90.879,0 136.318,-0.001 4.146,0 4.004,-0.263 4.004,4.106 -0.004,32.559 -0.011,65.119 0.024,97.678 0.002,1.486 0.145,3.065 0.66,4.436 0.894,2.375 2.864,3.67 5.394,3.722 4.718,0.097 9.441,0.112 14.158,0.007 3.366,-0.074 5.967,-2.7 6.304,-6.1 0.07,-0.713 0.028,-1.439 0.028,-2.158 10e-4,-76.719 10e-4,-153.437 10e-4,-230.155 0,-0.641 0.025,-1.282 -0.012,-1.92 -0.224,-3.772 -2.845,-6.472 -6.623,-6.562 -4.477,-0.106 -8.961,-0.105 -13.438,0 -3.88,0.091 -6.368,2.713 -6.486,6.579 -0.027,0.879 -0.012,1.759 -0.012,2.639 0,33.6 0.003,67.198 -0.005,100.798 -0.001,3.829 0.525,4.069 -4.084,4.068 -45.36,-0.011 -90.718,-0.011 -136.077,0 -4.608,10e-4 -4.09,-0.232 -4.091,-4.062 -0.008,-33.599 -0.004,-67.198 -0.005,-100.798 0,-0.88 0.014,-1.76 -0.012,-2.64 -0.112,-3.815 -2.448,-6.442 -6.21,-6.566 -4.634,-0.153 -9.281,-0.143 -13.917,-0.003 -3.588,0.11 -6.224,2.938 -6.421,6.537 -0.043,0.798 -0.011,1.6 -0.011,2.4 v 98.158 z"
             style="fill:#ffffff;fill-opacity:1;fill-rule:nonzero;stroke:none"
             id="path26"
             inkscape:connector-curvature="0" /></g><g
           id="g28"
           transform="translate(1619.1025,298.7852)"
           style="fill:#ffffff;fill-opacity:1"><path
             d="m 0,0 c 0,-1.104 -0.001,-2.208 -0.001,-3.312 0,-62.151 0.001,-124.302 0,-186.454 0,-0.799 0.03,-1.601 -0.012,-2.399 -0.201,-3.808 -2.571,-6.368 -6.343,-6.5 -4.154,-0.147 -8.322,-0.151 -12.475,0.002 -3.617,0.135 -6.162,2.966 -6.281,6.615 -0.024,0.72 -0.009,1.44 -0.009,2.16 V 43.119 c 0,0.4 0.032,0.802 -0.004,1.199 -0.417,4.532 2.646,7.486 7.346,7.414 1.839,-0.028 3.683,-0.085 5.517,0.023 1.623,0.096 2.689,-0.6 3.656,-1.816 5.621,-7.07 11.285,-14.107 16.933,-21.156 13.098,-16.344 26.191,-32.691 39.294,-49.029 13.104,-16.34 26.222,-32.67 39.328,-49.008 15.456,-19.268 30.905,-38.544 46.359,-57.813 4.8,-5.986 9.603,-11.971 14.426,-17.939 0.574,-0.709 1.284,-1.307 2.141,-2.169 0.322,0.755 0.603,1.146 0.641,1.558 0.082,0.873 0.043,1.758 0.043,2.637 0.001,60.872 0.045,121.743 -0.073,182.614 -0.01,5.747 2.576,9.113 8.603,8.673 3.182,-0.233 6.4,-0.153 9.595,-0.018 3.694,0.154 7.053,-2.941 6.994,-6.942 -0.007,-0.48 0.002,-0.96 0.002,-1.44 V -194.06 c 0,-0.639 0.027,-1.281 -0.014,-1.919 -0.219,-3.405 -2.551,-5.843 -5.954,-6.079 -1.831,-0.127 -3.679,0.007 -5.517,-0.052 -1.252,-0.04 -1.836,0.827 -2.48,1.63 -3.252,4.053 -6.489,8.118 -9.737,12.175 -10.19,12.732 -20.386,25.457 -30.57,38.194 -9.435,11.799 -18.849,23.617 -28.29,35.413 -9.989,12.482 -20.005,24.942 -29.997,37.422 C 51.681,-62.986 40.259,-48.681 28.82,-34.39 19.929,-23.282 11.025,-12.184 2.115,-1.091 1.7,-0.574 1.167,-0.151 0.689,0.315 0.459,0.21 0.229,0.105 0,0"
             style="fill:#ffffff;fill-opacity:1;fill-rule:nonzero;stroke:none"
             id="path30"
             inkscape:connector-curvature="0" /></g><g
           id="g32"
           transform="translate(493.502,223.5576)"
           style="fill:#ffffff;fill-opacity:1"><path
             d="m 0,0 c 0,-38.317 0,-76.636 -0.002,-114.953 0,-0.879 0.053,-1.771 -0.07,-2.635 -0.48,-3.388 -3.077,-5.788 -6.557,-5.865 -4.477,-0.099 -8.96,-0.103 -13.438,0 -3.897,0.089 -6.371,2.683 -6.491,6.559 -0.03,0.959 -0.013,1.92 -0.013,2.88 -10e-4,33.598 0,67.197 -10e-4,100.794 -0.001,3.835 -0.005,3.843 -3.825,3.843 -45.517,0.002 -91.035,0.002 -136.552,0 -3.877,0 -3.882,-0.007 -3.883,-3.784 -0.001,-33.599 0,-67.196 -0.001,-100.794 0,-0.96 0.016,-1.921 -0.012,-2.88 -0.113,-3.9 -2.558,-6.518 -6.439,-6.615 -4.477,-0.112 -8.96,-0.105 -13.438,-0.004 -3.88,0.087 -6.53,2.869 -6.676,6.762 -0.018,0.479 -0.006,0.96 -0.006,1.439 0,76.876 0.002,153.751 -0.013,230.627 0,2.046 0.179,3.973 1.567,5.627 1.25,1.489 2.768,2.44 4.731,2.455 4.719,0.035 9.441,0.099 14.157,-0.018 3.451,-0.087 5.924,-2.715 6.106,-6.188 0.05,-0.958 0.023,-1.919 0.023,-2.879 0.001,-32.318 0.003,-64.636 -0.002,-96.954 -0.001,-4.214 -0.038,-3.922 3.947,-3.922 45.517,-10e-4 91.034,-10e-4 136.552,0 3.759,0 3.763,0.004 3.764,3.861 10e-4,32.638 -0.008,65.276 0.027,97.914 0.002,1.486 0.149,3.062 0.656,4.438 0.88,2.39 2.854,3.676 5.383,3.729 4.717,0.097 9.44,0.11 14.157,0.006 3.436,-0.075 6.084,-2.832 6.331,-6.331 C 0.038,116.316 0,115.513 0,114.713 0,76.476 0,38.238 0,0"
             style="fill:#ffffff;fill-opacity:1;fill-rule:nonzero;stroke:none"
             id="path34"
             inkscape:connector-curvature="0" /></g><g
           id="g36"
           transform="translate(1435.6982,183.7549)"
           style="fill:#ffffff;fill-opacity:1"><path
             d="m 0,0 c -0.173,0.911 -0.187,1.471 -0.388,1.951 -0.679,1.621 -1.427,3.213 -2.145,4.818 -4.532,10.142 -9.073,20.28 -13.591,30.428 -4.063,9.125 -8.094,18.265 -12.149,27.393 -4.577,10.298 -9.157,20.595 -13.753,30.883 -2.902,6.494 -5.873,12.957 -8.729,19.47 -0.601,1.371 -1.503,1.632 -2.824,1.608 -1.38,-0.024 -1.683,-1.027 -2.1,-1.961 -3.223,-7.227 -6.428,-14.461 -9.652,-21.687 C -70.541,81.227 -75.768,69.558 -80.975,57.88 -84.881,49.12 -88.756,40.345 -92.668,31.587 -97.035,21.809 -101.435,12.045 -105.8,2.267 -106.046,1.715 -106.111,1.083 -106.384,0 Z m 48.861,-83.68 c -2,0 -4.003,0.066 -5.999,-0.014 -3.548,-0.144 -5.927,1.41 -7.335,4.652 -2.036,4.691 -4.135,9.355 -6.223,14.022 -4.568,10.213 -9.149,20.42 -13.716,30.633 -1.663,3.721 -3.348,7.434 -4.933,11.188 -0.572,1.357 -1.35,2.11 -2.879,1.926 C 7.303,-21.33 6.817,-21.28 6.337,-21.28 h -119.263 c -3.53,0 -3.487,-0.022 -4.895,-3.222 -5.215,-11.847 -10.466,-23.679 -15.695,-35.519 -2.711,-6.139 -5.429,-12.275 -8.093,-18.434 -1.762,-4.073 -3.41,-5.218 -7.878,-5.224 -3.76,-0.006 -7.52,-0.003 -11.279,0 -0.639,0.001 -1.286,-0.034 -1.918,0.039 -4.849,0.565 -7.073,4.389 -5.064,8.841 6.176,13.695 12.408,27.364 18.591,41.057 4.767,10.559 9.469,21.149 14.242,31.706 5.662,12.524 11.384,25.022 17.054,37.544 5.669,12.519 11.298,25.056 16.957,37.58 4.737,10.487 9.5,20.963 14.234,31.451 6.972,15.441 13.926,30.89 20.893,46.333 1.807,4.005 3.631,8.004 5.449,12.004 1.094,2.411 2.956,3.702 5.605,3.847 0.079,0.004 0.16,0.01 0.24,0.015 6.3,0.408 7.729,-0.504 10.305,-6.247 7.621,-16.989 15.291,-33.956 22.917,-50.943 C -15.403,96.501 -9.599,83.429 -3.742,70.381 2.083,57.404 7.958,44.451 13.781,31.473 19.016,19.809 24.189,8.117 29.426,-3.546 c 5.628,-12.539 11.304,-25.056 16.947,-37.588 4.953,-11.003 9.888,-22.014 14.829,-33.022 0.131,-0.292 0.255,-0.588 0.362,-0.888 1.712,-4.764 -0.663,-8.373 -5.745,-8.61 -2.314,-0.109 -4.638,-0.019 -6.958,-0.019 z"
             style="fill:#ffffff;fill-opacity:1;fill-rule:nonzero;stroke:none"
             id="path38"
             inkscape:connector-curvature="0" /></g><g
           id="g40"
           transform="translate(650.0669,268.2115)"
           style="fill:#ffffff;fill-opacity:1"><path
             d="m 0,0 c 0,-16.317 0,-32.635 0.002,-48.953 0,-0.798 0.01,-1.599 0.048,-2.398 0.045,-0.949 0.533,-1.463 1.521,-1.446 0.479,0.007 0.959,-0.015 1.439,-0.015 18.157,10e-4 36.315,0.027 54.472,-0.006 10.225,-0.019 19.651,2.854 28.069,8.455 16.915,11.255 25.374,27.191 25.144,47.576 -0.098,8.759 -2.54,16.95 -7.315,24.241 C 92.855,43.526 77.703,51.992 58.621,52.527 40.318,53.041 21.99,52.661 3.673,52.671 0.008,52.673 0.002,52.666 0.001,48.952 -0.001,32.635 0,16.317 0,0 m 0.229,-78.377 c -0.088,-1.452 -0.22,-2.619 -0.22,-3.786 -0.012,-25.516 -0.009,-51.033 -0.01,-76.549 0,-0.96 0.022,-1.921 -0.02,-2.879 -0.166,-3.745 -2.614,-6.389 -6.339,-6.503 -4.475,-0.137 -8.962,-0.146 -13.436,0.006 -3.709,0.126 -6.159,2.81 -6.326,6.539 -0.024,0.558 -0.007,1.119 -0.007,1.679 0,76.789 -0.002,153.579 0.016,230.369 0,1.264 0.069,2.574 0.396,3.784 0.704,2.602 2.903,4.29 5.591,4.506 0.716,0.057 1.439,0.048 2.158,0.048 25.037,0.002 50.073,-0.033 75.11,0.018 9.365,0.02 18.462,-1.392 27.304,-4.473 11.52,-4.014 21.557,-10.383 30.16,-19.017 9.147,-9.18 15.65,-19.974 19.427,-32.364 2.731,-8.958 3.639,-18.139 3.014,-27.49 -0.434,-6.496 -1.633,-12.822 -3.643,-19.011 C 129.376,-35.903 122.708,-46.656 113.4,-55.786 101.887,-67.078 88.215,-74.273 72.35,-77.111 67.964,-77.896 63.454,-78.29 58.997,-78.322 40.521,-78.453 22.042,-78.376 3.565,-78.377 Z"
             style="fill:#ffffff;fill-opacity:1;fill-rule:nonzero;stroke:none"
             id="path42"
             inkscape:connector-curvature="0" /></g><g
           id="g44"
           transform="translate(932.6792,350.5279)"
           style="fill:#ffffff;fill-opacity:1"><path
             d="m 0,0 c 11.265,-0.134 21.6,-1.059 31.736,-3.58 13.227,-3.289 25.585,-8.649 36.871,-16.283 5.685,-3.845 11.097,-8.103 16.507,-12.334 1.184,-0.926 2.156,-2.421 2.66,-3.853 0.791,-2.247 0.178,-4.433 -1.549,-6.182 -3.48,-3.527 -6.95,-7.065 -10.479,-10.543 -1.753,-1.726 -3.897,-1.722 -6.061,-0.018 -2.197,1.729 -4.261,3.628 -6.476,5.333 -8.668,6.675 -18.134,11.933 -28.334,15.904 -8.317,3.238 -16.908,5.417 -25.754,6.363 -7.246,0.775 -14.523,0.614 -21.776,-0.396 -22.264,-3.102 -41.199,-12.804 -56.902,-28.784 -8.531,-8.681 -15.205,-18.673 -20.203,-29.806 -4.359,-9.707 -7.206,-19.836 -8.43,-30.361 -1.778,-15.283 -0.321,-30.287 4.543,-44.955 5.125,-15.457 13.38,-28.965 24.83,-40.497 10.286,-10.359 22.311,-18.039 36.053,-23.071 13.846,-5.072 28.094,-6.5 42.706,-5.297 16.011,1.318 30.412,7.034 43.648,15.898 4.913,3.289 9.673,6.807 14.477,10.256 3.87,2.78 6.205,2.662 9.785,-0.575 2.61,-2.358 5.227,-4.712 7.856,-7.048 3.257,-2.893 3.519,-6.597 0.571,-9.827 -1.183,-1.296 -2.518,-2.458 -3.835,-3.623 -14.82,-13.108 -31.777,-22.133 -51.025,-26.873 -15.153,-3.732 -30.462,-4.552 -45.934,-2.825 -17.553,1.959 -34.006,7.339 -49.267,16.215 -21.191,12.324 -37.531,29.339 -48.902,51.09 -6.275,12.003 -10.505,24.706 -12.548,38.07 -1.672,10.93 -2.156,21.918 -0.935,32.988 0.907,8.217 2.353,16.295 4.724,24.189 3.797,12.639 9.433,24.424 16.929,35.307 5.466,7.934 11.766,15.135 18.853,21.657 8.404,7.735 17.688,14.204 27.845,19.42 9.935,5.103 20.372,8.795 31.287,11.174 C -17.505,-0.9 -8.362,-0.174 0,0"
             style="fill:#ffffff;fill-opacity:1;fill-rule:nonzero;stroke:none"
             id="path46"
             inkscape:connector-curvature="0" /></g><g
           id="g48"
           transform="translate(187.832,350.7139)"
           style="fill:#ffffff;fill-opacity:1"><path
             d="m 0,0 c 13.927,-0.28 27.329,-2.912 40.293,-7.937 6.955,-2.697 13.611,-5.948 19.93,-9.909 4.326,-2.712 5.41,-6.922 2.784,-11.326 -1.433,-2.402 -2.953,-4.752 -4.482,-7.095 -3.477,-5.33 -6.75,-6.076 -12.357,-2.975 -5.034,2.784 -10.014,5.69 -15.192,8.18 -8.624,4.147 -17.676,7.084 -27.278,7.794 -8.698,0.644 -17.281,-0.336 -25.516,-3.279 -13.641,-4.876 -23.135,-13.945 -26.401,-28.332 -3.154,-13.893 1.104,-25.885 10.918,-35.994 6.146,-6.331 13.479,-11.073 21.347,-14.878 8.122,-3.928 16.464,-7.406 24.741,-11.011 12.173,-5.302 24.217,-10.847 35.376,-18.126 8.501,-5.544 16.217,-11.951 22.18,-20.265 6.308,-8.797 9.633,-18.625 10.523,-29.413 0.512,-6.207 0.268,-12.316 -1.054,-18.357 -2.076,-9.479 -6.469,-17.833 -12.859,-25.124 -9.549,-10.894 -21.537,-17.902 -35.284,-22.123 -13.147,-4.036 -26.55,-4.75 -40.102,-2.989 -22.566,2.933 -42.428,12.03 -59.813,26.64 -0.857,0.72 -1.643,1.524 -2.5,2.243 -3.37,2.827 -2.781,6.581 -1.328,9.107 0.831,1.444 1.914,2.752 2.952,4.067 1.583,2.006 3.108,4.079 4.867,5.922 3.6,3.772 6.771,3.891 10.657,0.443 4.793,-4.253 9.812,-8.201 15.192,-11.682 9.953,-6.441 20.563,-11.363 32.28,-13.581 9.974,-1.889 19.889,-1.554 29.634,1.429 9.688,2.965 17.768,8.263 23.71,16.614 8.559,12.028 8.474,28.962 -0.102,40.985 -4.778,6.699 -10.954,11.817 -17.734,16.295 -7.69,5.08 -15.897,9.212 -24.265,13.034 -10.612,4.848 -21.32,9.494 -31.819,14.572 -9.016,4.361 -17.442,9.737 -24.844,16.581 -8.956,8.282 -14.88,18.329 -17.333,30.299 -2.091,10.2 -2.709,20.45 0.011,30.662 4.24,15.917 13.278,28.388 27.133,37.292 9.436,6.064 19.84,9.549 30.938,10.912 C -9.884,-0.721 -4.934,-0.432 0,0"
             style="fill:#ffffff;fill-opacity:1;fill-rule:nonzero;stroke:none"
             id="path50"
             inkscape:connector-curvature="0" /></g><g
           id="g52"
           transform="translate(1542.3018,223.5332)"
           style="fill:#ffffff;fill-opacity:1"><path
             d="m 0,0 c 0,-37.992 0,-75.985 -0.001,-113.978 0,-1.04 0.04,-2.084 -0.043,-3.118 -0.298,-3.736 -2.803,-6.245 -6.551,-6.332 -4.556,-0.104 -9.12,-0.111 -13.676,0.004 -3.785,0.095 -6.369,2.715 -6.711,6.529 -0.057,0.635 -0.021,1.279 -0.021,1.918 -0.001,76.706 -0.005,153.411 0.03,230.116 0,1.482 0.234,3.051 0.759,4.426 0.935,2.444 2.915,3.841 5.542,3.896 4.797,0.101 9.599,0.108 14.396,0.005 3.288,-0.071 5.835,-2.581 6.208,-5.892 0.115,-1.029 0.066,-2.077 0.066,-3.116 C 0,76.305 0,38.152 0,0"
             style="fill:#ffffff;fill-opacity:1;fill-rule:nonzero;stroke:none"
             id="path54"
             inkscape:connector-curvature="0" /></g><g
           id="g56"
           transform="translate(572.2695,223.5117)"
           style="fill:#ffffff;fill-opacity:1"><path
             d="m 0,0 c 0,-37.912 0,-75.825 0,-113.737 0,-1.04 0.019,-2.081 -0.018,-3.119 -0.129,-3.671 -2.645,-6.424 -6.313,-6.536 -4.714,-0.143 -9.439,-0.134 -14.154,-0.001 -3.671,0.104 -6.346,3.125 -6.293,6.3 0.015,0.879 -0.028,1.76 -0.028,2.639 -10e-4,76.386 -0.002,152.77 0.002,229.155 0,1.039 -0.011,2.085 0.096,3.115 0.32,3.043 2.802,5.573 5.867,5.652 4.956,0.127 9.919,0.13 14.874,-0.001 3.089,-0.081 5.677,-2.804 5.919,-5.891 0.081,-1.034 0.047,-2.079 0.047,-3.118 C 0,76.305 0,38.153 0,0"
             style="fill:#ffffff;fill-opacity:1;fill-rule:nonzero;stroke:none"
             id="path58"
             inkscape:connector-curvature="0" /></g></g></g></g></svg>